<svg xmlns="http://www.w3.org/2000/svg" width="60" height="60" fill="none"><g clip-path="url(#a)"><path fill="#0A1119" d="M32.575 4.675 5.1.5a4.43 4.43 0 0 0-3.55.975C.575 2.325 0 3.55 0 4.825V57.5C0 58.875 1.125 60 2.5 60h8.125V46.875A4.364 4.364 0 0 1 15 42.5h6.25a4.364 4.364 0 0 1 4.375 4.375V60H36.25V9c0-2.15-1.55-3.975-3.675-4.325Zm-18.825 32.2H10a1.876 1.876 0 0 1 0-3.75h3.75a1.876 1.876 0 0 1 0 3.75Zm0-7.5H10a1.876 1.876 0 0 1 0-3.75h3.75a1.876 1.876 0 0 1 0 3.75Zm0-7.5H10a1.876 1.876 0 0 1 0-3.75h3.75a1.876 1.876 0 0 1 0 3.75Zm0-7.5H10a1.876 1.876 0 0 1 0-3.75h3.75a1.876 1.876 0 0 1 0 3.75Zm12.5 22.5H22.5a1.876 1.876 0 0 1 0-3.75h3.75a1.876 1.876 0 0 1 0 3.75Zm0-7.5H22.5a1.876 1.876 0 0 1 0-3.75h3.75a1.876 1.876 0 0 1 0 3.75Zm0-7.5H22.5a1.876 1.876 0 0 1 0-3.75h3.75a1.876 1.876 0 0 1 0 3.75Zm0-7.5H22.5a1.876 1.876 0 0 1 0-3.75h3.75a1.876 1.876 0 0 1 0 3.75Z"/><path fill="#CECFD1" d="m56.55 27.105-17.8-3.728V60h16.875A4.38 4.38 0 0 0 60 55.625V31.38c0-2.065-1.407-3.823-3.45-4.275ZM50.625 52.5h-3.75a1.876 1.876 0 0 1 0-3.75h3.75a1.876 1.876 0 0 1 0 3.75Zm0-7.5h-3.75a1.876 1.876 0 0 1 0-3.75h3.75a1.876 1.876 0 0 1 0 3.75Zm0-7.5h-3.75a1.876 1.876 0 0 1 0-3.75h3.75a1.876 1.876 0 0 1 0 3.75Z"/></g><defs><clipPath id="a"><path fill="#fff" d="M0 0h60v60H0z"/></clipPath></defs></svg>