<svg xmlns="http://www.w3.org/2000/svg" width="80" height="80" fill="none"><g fill="#fff" clip-path="url(#a)" opacity=".8"><path d="M72.969 20.625H80V4.9a2.345 2.345 0 0 0-4.002-1.658L3.242 76A2.345 2.345 0 0 0 4.9 80h15.725v-6.25a2.345 2.345 0 0 1 4.688 0V80h6.25v-6.25a2.345 2.345 0 0 1 4.687 0V80h6.25v-6.25a2.345 2.345 0 0 1 4.688 0V80h6.25v-6.25a2.345 2.345 0 0 1 4.687 0V80h6.25v-6.25a2.345 2.345 0 0 1 4.688 0V80h8.593A2.345 2.345 0 0 0 80 77.656v-8.593h-6.25a2.345 2.345 0 0 1 0-4.688H80v-6.25h-6.25a2.345 2.345 0 0 1 0-4.687H80v-6.25h-6.25a2.345 2.345 0 0 1 0-4.688H80v-6.25h-6.25a2.345 2.345 0 0 1 0-4.687H80v-6.25h-7.03a2.345 2.345 0 0 1 0-4.688Zm-7.031 42.969a2.345 2.345 0 0 1-2.344 2.344H38.85a2.345 2.345 0 0 1-1.658-4.002l24.744-24.744a2.345 2.345 0 0 1 4.002 1.658v24.744ZM7.233 45.378l9.944 9.944-6.547 6.545a2.344 2.344 0 0 1-3.314 0l-6.63-6.63a2.344 2.344 0 0 1 0-3.314l6.547-6.545Z"/><path d="M54.46 17.394c.218 0 .44-.006.663-.019L20.491 52.008l-9.944-9.944L44.723 7.887c.052 2.655.999 5.005 2.749 6.757 1.803 1.801 4.237 2.75 6.987 2.75Z" opacity=".2"/><path d="m62.328 3.348-4.006 8.444c-2.864 1.306-5.835 1.238-7.536-.464-1.542-1.542-1.742-4.128-.792-6.733l9.21-4.369a2.345 2.345 0 0 1 3.124 3.122Z"/></g><defs><clipPath id="a"><path fill="#fff" d="M0 0h80v80H0z"/></clipPath></defs></svg>