<svg xmlns="http://www.w3.org/2000/svg" width="80" height="80" fill="none"><path fill="#0A1119" d="M0 37.627v2.345c0 1.047.789 1.968 1.935 2.256.776.195 19.242 4.78 38.065 4.78 18.823 0 37.29-4.585 38.065-4.78C79.211 41.94 80 41.02 80 39.972v-2.345c0-1.296-1.193-2.345-2.667-2.345H2.667C1.193 35.282 0 36.33 0 37.627ZM72 56.39c1.474 0 2.667-1.049 2.667-2.345v-6.218a200.827 200.827 0 0 1-16.13 2.652C57.867 58.998 49.854 65.77 40 65.77s-17.866-6.772-18.538-15.29a200.819 200.819 0 0 1-16.129-2.652v6.218c0 1.296 1.193 2.345 2.667 2.345h3.781a23.773 23.773 0 0 0 2.625 5.524l-2.69 2.366c-1.041.916-1.041 2.4 0 3.317l7.542 6.633c1.041.916 2.73.916 3.77 0l2.69-2.366A31.12 31.12 0 0 0 32 74.173v3.482C32 78.95 33.193 80 34.667 80h10.666C46.807 80 48 78.951 48 77.655v-3.482a31.106 31.106 0 0 0 6.281-2.31l2.69 2.367c1.042.916 2.73.916 3.771 0l7.542-6.633c1.042-.916 1.042-2.4 0-3.317l-2.69-2.366a23.781 23.781 0 0 0 2.625-5.524H72Z"/><path fill="#0A1119" d="M35.763 25.692c-1.343.535-2.925.006-3.526-1.173L23.912 8.13C14.395 12.534 7.56 20.892 5.848 30.591h68.304C72.44 20.892 65.605 12.534 56.088 8.13l-8.325 16.39c-.601 1.18-2.184 1.707-3.526 1.173-1.341-.531-1.94-1.92-1.333-3.101l9.214-18.129c.663-1.292-.1-2.868-1.655-3.238a45.338 45.338 0 0 0-20.927 0c-1.555.37-2.318 1.947-1.655 3.239l9.215 18.128c.607 1.182.01 2.57-1.333 3.101Z" opacity=".2"/></svg>