<svg xmlns="http://www.w3.org/2000/svg" width="20" height="20" fill="none"><g fill="#0A1119" clip-path="url(#a)"><path d="M9.065 15.651h4.121v1.508h-4.12V15.65Zm8.672-14.348h-1.905v1.753l1.905 1.44V1.303Z"/><path d="M1.533 9.832v10.055h3.714v-2.728h2.647v-2.68h2.646v-2.71h2.647V9.076h4.091L9.996 3.61 1.533 9.832Z"/><path d="M6.419 18.33h4.12v1.557H6.42V18.33Zm5.293 0h4.12v1.557h-4.12V18.33ZM0 7.571V8.78h.987l9.017-6.63 8.832 6.63H20V7.677L9.998.113 0 7.571ZM17.005 18.33h1.462v1.557h-1.462V18.33Zm-2.647-8.083h4.11v1.523h-4.11v-1.523Zm-2.646 2.695h4.12v1.537h-4.12v-1.537Zm2.646 2.709h4.11v1.508h-4.11V15.65Zm2.647-2.709h1.462v1.537h-1.462v-1.537Z"/></g><defs><clipPath id="a"><path fill="#fff" d="M0 0h20v20H0z"/></clipPath></defs></svg>