<svg xmlns="http://www.w3.org/2000/svg" width="182" height="182" fill="none"><path stroke="#fff" d="M86.434 4.77c.434-5.637 8.698-5.637 9.132 0 .47 6.106 9.011 7.105 10.877 1.271 1.723-5.385 9.763-3.479 8.886 2.106-.951 6.05 7.13 8.992 10.291 3.746 2.918-4.843 10.302-1.134 8.16 4.098-2.32 5.668 4.864 10.393 9.15 6.018 3.956-4.039 10.286 1.273 6.995 5.87-3.564 4.98 2.336 11.235 7.516 7.965 4.78-3.017 9.715 3.61 5.453 7.325-4.617 4.024-.318 11.471 5.475 9.485 5.348-1.834 8.621 5.753 3.617 8.384-5.42 2.851-2.954 11.089 3.141 10.492 5.627-.551 7.062 7.586 1.586 8.993-5.932 1.524-5.432 10.108.637 10.933 5.602.76 5.121 9.01-.531 9.116-6.124.115-7.617 8.583-1.902 10.785 5.276 2.033 2.906 9.949-2.619 8.748-5.985-1.3-9.391 6.595-4.338 10.056 4.665 3.194.533 10.351-4.565 7.908-5.524-2.645-10.659 4.252-6.54 8.785 3.802 4.184-1.869 10.194-6.267 6.642-4.764-3.848-11.351 1.679-8.389 7.039 2.735 4.948-4.169 9.489-7.63 5.018-3.748-4.843-11.432-.984-9.786 4.915 1.52 5.446-6.245 8.272-8.581 3.123-2.531-5.577-10.898-3.594-10.656 2.526.223 5.649-7.985 6.608-9.07 1.06-1.177-6.01-9.775-6.01-10.952 0-1.085 5.548-9.293 4.589-9.07-1.06.242-6.12-8.125-8.103-10.656-2.526-2.336 5.149-10.1 2.323-8.581-3.123 1.646-5.899-6.038-9.758-9.786-4.915-3.46 4.471-10.365-.07-7.63-5.018 2.962-5.36-3.625-10.887-8.39-7.039-4.397 3.552-10.068-2.458-6.266-6.642 4.119-4.533-1.016-11.43-6.54-8.785-5.098 2.443-9.23-4.714-4.565-7.908 5.053-3.461 1.647-11.356-4.338-10.056-5.525 1.201-7.895-6.715-2.62-8.748 5.716-2.202 4.223-10.67-1.9-10.785-5.653-.106-6.134-8.355-.532-9.116 6.07-.825 6.57-9.41.637-10.933-5.476-1.407-4.04-9.544 1.586-8.993 6.095.597 8.561-7.64 3.14-10.492-5.003-2.63-1.73-10.218 3.618-8.384 5.793 1.986 10.092-5.46 5.475-9.485-4.262-3.714.673-10.342 5.453-7.325 5.18 3.27 11.08-2.985 7.516-7.965-3.291-4.598 3.039-9.909 6.995-5.87 4.286 4.375 11.47-.35 9.15-6.018-2.142-5.232 5.242-8.94 8.16-4.098 3.161 5.246 11.241 2.305 10.291-3.746-.877-5.585 7.163-7.49 8.886-2.106 1.866 5.834 10.406 4.835 10.877-1.271z" opacity=".2"/></svg>