<svg xmlns="http://www.w3.org/2000/svg" width="44" height="44" fill="none"><path fill="#FFB703" d="M38.23 9.434 29.066.27a.914.914 0 0 0-.65-.27H9.167A3.67 3.67 0 0 0 5.5 3.667v36.666A3.67 3.67 0 0 0 9.167 44h25.666a3.67 3.67 0 0 0 3.667-3.667v-30.25a.913.913 0 0 0-.27-.649Zm-24.48 3.4a2.753 2.753 0 0 1-2.75-2.75c0-1.194.769-2.202 1.833-2.582v-.169a.916.916 0 1 1 1.834 0h.916a.916.916 0 1 1 0 1.834H13.75a.918.918 0 0 0 0 1.833 2.753 2.753 0 0 1 2.75 2.75 2.746 2.746 0 0 1-1.833 2.581v.169a.916.916 0 1 1-1.834 0h-.916a.916.916 0 1 1 0-1.833h1.833a.918.918 0 0 0 0-1.834ZM22.917 38.5h-11a.916.916 0 1 1 0-1.833h11a.916.916 0 1 1 0 1.833Zm9.166-5.5H11.917a.916.916 0 1 1 0-1.833h20.166a.916.916 0 1 1 0 1.833Zm0-5.5H11.917a.916.916 0 1 1 0-1.833h20.166a.916.916 0 1 1 0 1.833Zm0-5.5H11.917a.916.916 0 1 1 0-1.833h20.166a.916.916 0 1 1 0 1.833Zm0-5.5h-11a.916.916 0 1 1 0-1.833h11a.916.916 0 1 1 0 1.833Zm-.916-7.333a1.835 1.835 0 0 1-1.834-1.834V3.13l6.038 6.037h-4.204Z"/></svg>