<svg xmlns="http://www.w3.org/2000/svg" width="60" height="60" fill="none"><g clip-path="url(#a)"><path fill="#CECFD1" d="M58.24 58.652a29.292 29.292 0 0 0-5.54-3.345l-7.024-3.243a18.945 18.945 0 0 1-3.05 5.434A16.965 16.965 0 0 1 40.151 60H60l-1.76-1.348Zm-40.866-1.154a18.948 18.948 0 0 1-3.05-5.434L7.3 55.307a29.293 29.293 0 0 0-5.54 3.345L0 60h19.85a16.965 16.965 0 0 1-2.476-2.502Z"/><path fill="#0A1119" d="M41.443 48.984v-.4A17.728 17.728 0 0 1 30 52.759a17.725 17.725 0 0 1-11.443-4.175v.4c0 .684-.4 1.31-1.021 1.597 0 0 2.713 9.42 12.464 9.42 9.752 0 12.464-9.42 12.464-9.42a1.762 1.762 0 0 1-1.02-1.597Z"/><path fill="#0A1119" d="M30 49.242c7.884 0 14.297-6.416 14.297-14.303v-6.332H15.703v6.332c0 7.886 6.414 14.303 14.297 14.303ZM11.995 25.09h36.01a1.758 1.758 0 0 0 0-3.517h-1.477v-1.819c0-5.668-2.866-10.677-7.223-13.658v7.42a1.758 1.758 0 1 1-3.516 0V4.978c0-.234.047-.457.13-.662a16.397 16.397 0 0 0-4.161-1.003v12.36a1.759 1.759 0 1 1-3.516 0V3.313a16.386 16.386 0 0 0-4.16 1.003c.082.205.13.428.13.662v8.538a1.758 1.758 0 1 1-3.517 0v-7.42c-4.357 2.98-7.223 7.99-7.223 13.659v1.818h-1.477a1.759 1.759 0 0 0 0 3.517Z"/><path fill="#CECFD1" d="M39.305 4.977a1.758 1.758 0 0 0-3.386-.66 16.48 16.48 0 0 1 3.386 1.779V4.977ZM22.454 3.219c-.971 0-1.758.787-1.758 1.758v1.118a16.484 16.484 0 0 1 3.385-1.78 1.758 1.758 0 0 0-1.627-1.096Z"/><path fill="#0A1119" d="M31.758 3.313V1.759a1.758 1.758 0 1 0-3.516 0v1.554a16.52 16.52 0 0 1 3.516 0Z"/></g><defs><clipPath id="a"><path fill="#fff" d="M0 0h60v60H0z"/></clipPath></defs></svg>