<svg xmlns="http://www.w3.org/2000/svg" width="63" height="60" fill="none"><path fill="#0A1119" d="m50.912 16.925-10.394-1.51-4.649-9.418c-1.794-3.637-6.986-3.639-8.781 0l-4.649 9.418-10.394 1.51c-4.013.584-5.618 5.52-2.713 8.352l7.52 7.332-1.775 10.352c-.685 3.997 3.513 7.05 7.105 5.162l9.297-4.888 9.296 4.888c3.596 1.89 7.789-1.174 7.105-5.162l-1.776-10.352 7.521-7.332c2.904-2.83 1.302-7.768-2.713-8.352Z"/><path fill="#CECFD1" d="M16.567 4.32 14.057.864a2.099 2.099 0 0 0-3.395 2.467l2.51 3.454a2.098 2.098 0 0 0 3.395-2.467ZM8.238 35.276a2.098 2.098 0 0 0-2.644-1.347L1.45 35.275a2.099 2.099 0 0 0 1.297 3.992L6.89 37.92a2.098 2.098 0 0 0 1.347-2.644ZM51.831.401A2.098 2.098 0 0 0 48.9.865L46.39 4.32a2.098 2.098 0 1 0 3.396 2.468l2.51-3.455A2.098 2.098 0 0 0 51.83.401Zm9.676 34.874-4.144-1.346a2.098 2.098 0 1 0-1.297 3.991l4.143 1.347a2.099 2.099 0 0 0 1.297-3.992ZM31.479 51.544c-1.16 0-2.099.94-2.099 2.098v4.26a2.099 2.099 0 0 0 4.197 0v-4.26c0-1.159-.94-2.098-2.098-2.098Z"/></svg>