<svg xmlns="http://www.w3.org/2000/svg" width="16" height="14" fill="none"><path fill="#fff" d="M0 7v7h6.857V7H2.286c0-2.573 2.05-4.667 4.571-4.667V0C3.076 0 0 3.14 0 7Z"/><path fill="#fff" fill-rule="evenodd" d="M2.298 6.65c.176-2.41 2.154-4.317 4.56-4.317V0c-.117 0-.233.003-.349.009C2.89.194 0 3.259 0 7v7h6.857V7H2.286c0-.118.004-.234.012-.35Z" clip-rule="evenodd"/><path fill="#fff" d="M16 2.333V0c-3.781 0-6.857 3.14-6.857 7v7H16V7h-4.571c0-2.573 2.05-4.667 4.571-4.667Z"/><path fill="#fff" fill-rule="evenodd" d="M11.441 6.65c.176-2.41 2.154-4.317 4.559-4.317V0a6.8 6.8 0 0 0-.348.009c-3.62.185-6.51 3.25-6.51 6.991v7H16V7h-4.571c0-.118.004-.234.012-.35Z" clip-rule="evenodd"/></svg>