<svg xmlns="http://www.w3.org/2000/svg" width="60" height="60" fill="none"><path fill="#0A1119" d="m55.897 17.96-2.948 2.76.696 3.895-3.644-1.838-3.646 1.838.696-3.895-2.949-2.76 4.076-.569L50 13.846l1.821 3.545 4.075.569Z"/><mask id="a" width="60" height="60" x="0" y="0" maskUnits="userSpaceOnUse" style="mask-type:luminance"><path fill="#fff" d="M0 0h60v60H0V0Z"/></mask><g mask="url(#a)"><path fill="#EAECF1" d="m37.949 9.178-4.104 4.061.97 5.735-5.071-2.707-5.07 2.707.968-5.735-4.104-4.06 5.67-.837 2.536-5.265 2.535 5.265 5.67.836ZM15.897 17.96l-2.948 2.76.696 3.895-3.644-1.838-3.646 1.838.696-3.895-2.948-2.76 4.075-.569L10 13.846l1.821 3.545 4.075.569Z"/><path fill="#0A1119" d="M49.199 44.957c-3.182 0-6.348 1.601-8.053 4.054-2.27-3.877-6.422-6.447-11.146-6.447-4.74 0-8.887 2.587-11.146 6.447-1.705-2.453-4.871-4.054-8.052-4.054-5.204 0-9.776 4.286-9.776 9.573v2.393h57.948V54.53c0-5.287-4.572-9.573-9.775-9.573Zm-.225-2.393a5.898 5.898 0 1 0-.001-11.796 5.898 5.898 0 0 0 .001 11.796Zm-19.23-2.051a8.205 8.205 0 1 0 0-16.41 8.205 8.205 0 0 0 0 16.41Zm-18.718 2.051a5.898 5.898 0 1 0-.002-11.796 5.898 5.898 0 0 0 .002 11.796Z"/><path fill="#0A1119" d="M29.744 46.154c.566 0 1.025.574 1.025 1.282 0 .707-.46 1.282-1.025 1.282-.567 0-1.026-.575-1.026-1.282 0-.708.46-1.282 1.026-1.282Z"/><path fill="#0A1119" fill-rule="evenodd" d="M42.051 36.923c0 3.965 3.1 7.18 6.923 7.18s6.923-3.215 6.923-7.18-3.1-7.18-6.923-7.18-6.923 3.215-6.923 7.18Zm6.923 4.786c-2.548 0-4.615-2.143-4.615-4.786s2.067-4.786 4.615-4.786c2.549 0 4.616 2.143 4.616 4.786s-2.067 4.786-4.616 4.786ZM0 56.795a1.16 1.16 0 0 0 1.167 1.154H17.04a1.16 1.16 0 0 0 1.167-1.154 1.16 1.16 0 0 0-1.167-1.154H2.334v-1.154c0-4.406 3.952-8.077 8.52-8.077 2.804 0 5.572 1.386 7.026 3.421.372.52 1.1.645 1.626.277a1.145 1.145 0 0 0 .28-1.608c-1.926-2.696-5.432-4.397-8.932-4.397C5.109 44.103 0 48.698 0 54.487v2.308Zm41.794 0a1.16 1.16 0 0 0 1.167 1.154h15.872A1.16 1.16 0 0 0 60 56.795v-2.308c0-5.789-5.11-10.384-10.854-10.384-3.5 0-7.006 1.701-8.932 4.397-.372.52-.247 1.24.28 1.608a1.176 1.176 0 0 0 1.626-.277c1.454-2.035 4.222-3.42 7.026-3.42 4.568 0 8.52 3.67 8.52 8.076v1.154H42.96a1.16 1.16 0 0 0-1.167 1.154ZM4.103 36.923c0 3.965 3.1 7.18 6.923 7.18s6.923-3.215 6.923-7.18-3.1-7.18-6.923-7.18-6.923 3.215-6.923 7.18Zm6.923 4.786c-2.549 0-4.616-2.143-4.616-4.786s2.067-4.786 4.616-4.786c2.548 0 4.615 2.143 4.615 4.786s-2.067 4.786-4.615 4.786Zm9.487-9.658c0 5.24 4.133 9.488 9.23 9.488 5.099 0 9.232-4.248 9.232-9.488 0-5.24-4.133-9.487-9.231-9.487s-9.231 4.248-9.231 9.487Zm9.23 7.116c-3.823 0-6.922-3.186-6.922-7.116 0-3.93 3.1-7.115 6.923-7.115s6.923 3.186 6.923 7.115c0 3.93-3.1 7.116-6.923 7.116Z" clip-rule="evenodd"/><path fill="#EAECF1" fill-rule="evenodd" d="M24.075 19.777c.355.261.826.296 1.215.089l4.454-2.373 2.754 1.467 1.701.906c.389.207.86.172 1.215-.09.356-.261.534-.704.46-1.143l-.852-5.025 3.604-3.559a1.18 1.18 0 0 0 .292-1.198 1.158 1.158 0 0 0-.932-.796l-4.977-.732-2.229-4.616a1.153 1.153 0 0 0-1.036-.656c-.441 0-.843.255-1.037.656l-2.228 4.616-4.978.732a1.158 1.158 0 0 0-.931.796 1.18 1.18 0 0 0 .291 1.198l3.605 3.559-.85 5.025c-.075.439.103.882.459 1.144Zm9.128-3.083-2.922-1.556a1.14 1.14 0 0 0-1.074 0l-2.922 1.556.558-3.297a1.18 1.18 0 0 0-.332-1.035l-2.364-2.334 3.266-.48c.378-.055.704-.296.871-.643l1.46-3.024 1.46 3.024c.167.347.493.588.87.643l3.266.48-2.364 2.334a1.178 1.178 0 0 0-.332 1.035l.559 3.297Zm12.14 8.726c.369.26.859.293 1.263.088l3.138-1.596 3.137 1.596c.404.205.894.171 1.264-.089s.554-.7.477-1.136l-.599-3.38 2.538-2.396c.327-.309.445-.77.303-1.191a1.19 1.19 0 0 0-.968-.79l-3.508-.494-1.567-3.076a1.204 1.204 0 0 0-1.076-.648c-.457 0-.875.25-1.077.647L47.1 16.032l-3.507.493a1.19 1.19 0 0 0-.969.79 1.14 1.14 0 0 0 .303 1.192l2.538 2.395-.599 3.381c-.077.436.108.876.477 1.136Zm2.299-3.063.295-1.664a1.14 1.14 0 0 0-.345-1.028l-1.25-1.178 1.727-.243a1.2 1.2 0 0 0 .903-.636l.772-1.513.771 1.513c.175.343.513.58.904.636l1.726.242-1.25 1.18a1.139 1.139 0 0 0-.344 1.027l.295 1.663-1.543-.785a1.235 1.235 0 0 0-1.117 0l-1.544.786ZM5.756 25.42c.356.26.829.293 1.219.088L10 23.912l3.024 1.596c.39.205.863.171 1.219-.089.356-.26.535-.7.46-1.136l-.577-3.38 2.447-2.396a1.165 1.165 0 0 0-.642-1.982l-3.382-.493-1.512-3.076a1.157 1.157 0 0 0-2.075 0L7.45 16.031l-3.382.493a1.165 1.165 0 0 0-.642 1.982l2.447 2.395-.577 3.381c-.075.436.104.876.46 1.136Zm2.217-3.063.284-1.664a1.165 1.165 0 0 0-.332-1.028L6.72 18.487l1.664-.243c.377-.055.703-.293.871-.636L10 16.095l.744 1.513c.168.343.494.58.871.636l1.664.242-1.204 1.18a1.164 1.164 0 0 0-.332 1.027l.284 1.663-1.488-.785a1.153 1.153 0 0 0-1.077 0l-1.489.786Z" clip-rule="evenodd"/><path fill="#0A1119" fill-rule="evenodd" d="M15.898 56.777c0 .647.526 1.172 1.175 1.172h25.854c.65 0 1.176-.525 1.176-1.172v-1.173c0-2.62-.72-5.075-1.971-7.176a14.135 14.135 0 0 0-2.16-2.77A14.076 14.076 0 0 0 30 41.539a14.105 14.105 0 0 0-12.131 6.89 13.984 13.984 0 0 0-1.971 7.176v1.173Zm2.35-1.173c0-2.186.6-4.229 1.641-5.979A11.753 11.753 0 0 1 30 43.883c3.246 0 6.182 1.31 8.31 3.433a11.79 11.79 0 0 1 1.801 2.31 11.644 11.644 0 0 1 1.641 5.978H18.248Z" clip-rule="evenodd"/><path fill="#0A1119" fill-rule="evenodd" d="M37.81 53.22a1.17 1.17 0 0 0 .54-1.548 9.301 9.301 0 0 0-3.248-3.79 1.13 1.13 0 0 0-1.581.334c-.346.536-.2 1.257.327 1.609a6.989 6.989 0 0 1 2.44 2.845c.271.58.953.826 1.522.55Z" clip-rule="evenodd"/><ellipse cx="50" cy="19.5" fill="#EAECF1" rx="4" ry="3.5"/></g></svg>